<?xml version="1.0" encoding="utf-8"?>
<svg version="1.2" xmlns="http://www.w3.org/2000/svg" xmlns:xlink="http://www.w3.org/1999/xlink"
	 x="0px" y="0px" width="24px" height="24px" viewBox="0 0 24 24">
<g class="fm_fill">
<path d="M9.225,18.628v-0.694c1.257-0.152,1.388-0.24,1.388-1.778v-4.293c0-1.431-0.152-1.496-1.193-1.669V9.563
		c1.3-0.152,2.732-0.434,3.946-0.781v7.373c0,1.496,0.108,1.604,1.409,1.778v0.694H9.225z M10.287,5.898
		c0-0.867,0.716-1.518,1.54-1.518c0.868,0,1.54,0.651,1.54,1.518c0,0.825-0.672,1.519-1.561,1.519
		C11.003,7.417,10.287,6.723,10.287,5.898z"/>
<path d="M12.001,24C5.384,24,0,18.617,0,12C0,5.383,5.384,0,12.001,0C18.617,0,24,5.383,24,12
		C24,18.617,18.617,24,12.001,24z M12.001,1C5.935,1,1,5.935,1,12s4.935,11,11.001,11C18.065,23,23,18.065,23,12S18.065,1,12.001,1z
		"/>
</g>
</svg>
