<?xml version="1.0" encoding="utf-8"?>
<svg version="1.2" xmlns="http://www.w3.org/2000/svg" xmlns:xlink="http://www.w3.org/1999/xlink"
	 x="0px" y="0px" width="24px" height="24px" viewBox="0 0 24 24">
<g class="fm_fill">
<path d="M21.076,0H3.146C2.674,0,2.29,0.383,2.29,0.857v22.286C2.29,23.615,2.674,24,3.146,24h17.93
	c0.474,0,0.857-0.385,0.857-0.857V0.857C21.934,0.383,21.55,0,21.076,0z M3.969,16.928h10.039v2.213H3.969V16.928z M3.969,16.07V14
	h10.039v2.07H3.969z M3.969,13.141v-2.194h10.039v2.194H3.969z M3.969,10.089V8.921c0-0.47,0.4-0.851,0.892-0.851h9.147v2.019H3.969
	z M3.862,3.731c0-0.474,0.315-0.857,0.704-0.857h3.521c0.389,0,0.704,0.383,0.704,0.857v0.536c0,0.474-0.314,0.857-0.704,0.857
	H4.565c-0.389,0-0.704-0.383-0.704-0.857V3.731z M3.969,21.469v-1.471h10.039v2.322H4.861C4.369,22.32,3.969,21.939,3.969,21.469z
	 M20.254,21.469c0,0.471-0.398,0.852-0.892,0.852h-4.498v-2.322h5.39V21.469z M20.254,19.141h-5.39v-2.213h5.39V19.141z
	 M20.254,16.07h-5.39V14h5.39V16.07z M20.254,13.141h-5.39v-2.194h5.284v-0.858h-5.284V8.07h4.498c0.493,0,0.892,0.381,0.892,0.851
	V13.141z"/>
</g>
</svg>
