<?xml version="1.0" encoding="utf-8"?>
<svg version="1.2" xmlns="http://www.w3.org/2000/svg" xmlns:xlink="http://www.w3.org/1999/xlink"
	 x="0px" y="0px" width="24px" height="24px" viewBox="0 0 24 24">
<g class="fm_fill">
<path d="M18.315,15.663c-0.083-0.182-0.199-0.356-0.345-0.526c-0.147-0.173-0.337-0.301-0.573-0.386
	c-0.113-0.039-0.259-0.094-0.439-0.169c-0.181-0.072-0.381-0.156-0.606-0.248c-0.227-0.094-0.464-0.192-0.714-0.299
	c-0.25-0.109-0.497-0.215-0.742-0.321c-0.245-0.107-0.481-0.212-0.712-0.312c-0.23-0.103-0.437-0.192-0.616-0.271v-0.986
	c0-0.044,0.014-0.116,0.043-0.215c0.027-0.098,0.059-0.201,0.093-0.309c0.038-0.123,0.08-0.254,0.125-0.395
	c0.101-0.188,0.184-0.395,0.258-0.611c0.021,0.014,0.043,0.025,0.066,0.028c0.22,0.038,0.386-0.38,0.433-0.891
	c0.046-0.501,0.098-0.658-0.237-0.685c0-0.023,0.005-0.046,0.005-0.069c0-0.573-0.06-1.059-0.183-1.455
	c-0.12-0.396-0.125-0.681-0.335-0.925c-0.211-0.245-0.618-0.458-0.896-0.569c-0.278-0.11-0.574-0.164-0.889-0.164
	c-0.322,0-0.623,0.142-0.902,0.254c-0.278,0.114-0.727,0.231-0.934,0.479c-0.208,0.247-0.165,0.544-0.286,0.938
	c-0.119,0.385-0.145,0.953-0.146,1.51c-0.005,0-0.01,0-0.015,0c-0.353,0.022-0.298,0.177-0.25,0.687
	c0.047,0.51,0.212,0.928,0.432,0.89c0.022-0.003,0.042-0.014,0.062-0.026c0.077,0.229,0.162,0.446,0.268,0.642
	c0.044,0.129,0.084,0.251,0.119,0.362c0.027,0.096,0.054,0.19,0.08,0.283c0.024,0.094,0.044,0.163,0.055,0.208v0.961
	c-0.174,0.079-0.376,0.169-0.607,0.27c-0.23,0.102-0.475,0.207-0.734,0.321c-0.257,0.112-0.518,0.225-0.779,0.338
	c-0.262,0.112-0.511,0.218-0.748,0.316c-0.236,0.097-0.449,0.184-0.64,0.261c-0.191,0.076-0.346,0.134-0.465,0.173
	c-0.23,0.085-0.418,0.213-0.564,0.386c-0.146,0.17-0.263,0.345-0.346,0.526C5.546,15.869,5.471,16.09,5.42,16.32v1.07h13.116v-1.07
	C18.49,16.09,18.418,15.869,18.315,15.663z"/>
<path d="M23.781,14.706c-0.084-0.182-0.199-0.356-0.346-0.526c-0.146-0.173-0.338-0.301-0.573-0.386
	c-0.112-0.038-0.259-0.094-0.438-0.168c-0.182-0.073-0.383-0.156-0.607-0.247c-0.226-0.096-0.463-0.194-0.714-0.301
	c-0.249-0.109-0.496-0.214-0.741-0.321c-0.245-0.107-0.481-0.211-0.713-0.312s-0.436-0.191-0.617-0.27v-0.987
	c0-0.045,0.016-0.116,0.043-0.216c0.028-0.098,0.06-0.2,0.094-0.308c0.038-0.123,0.081-0.255,0.126-0.395
	c0.1-0.188,0.183-0.395,0.258-0.611c0.021,0.013,0.042,0.024,0.065,0.028c0.22,0.037,0.386-0.381,0.433-0.891
	c0.045-0.502,0.099-0.659-0.237-0.685c0-0.024,0.004-0.046,0.004-0.07c0-0.573-0.06-1.059-0.182-1.455
	c-0.119-0.396-0.126-0.681-0.335-0.925c-0.212-0.245-0.617-0.458-0.896-0.568c-0.278-0.11-0.573-0.165-0.889-0.165
	c-0.322,0-0.623,0.142-0.901,0.254c-0.279,0.114-0.728,0.23-0.935,0.479C15.471,5.91,15.514,6.206,15.393,6.6
	c-0.118,0.386-0.146,0.954-0.146,1.511c-0.005,0-0.009,0-0.015,0c-0.141,0.008-0.214,0.04-0.251,0.105
	c0.06,0.105,0.034,0.292,0.004,0.605c0.049,0.499,0.212,0.903,0.429,0.866c0.021-0.004,0.042-0.015,0.062-0.026
	c0.076,0.229,0.162,0.447,0.268,0.642c0.044,0.129,0.084,0.251,0.118,0.362c0.027,0.096,0.055,0.19,0.08,0.283
	c0.024,0.094,0.043,0.162,0.054,0.207v0.962c-0.174,0.079-0.375,0.168-0.607,0.27c-0.229,0.101-0.475,0.207-0.733,0.32
	c-0.123,0.055-0.246,0.105-0.368,0.159c0.079,0.035,0.156,0.069,0.242,0.107c0.259,0.115,0.525,0.229,0.802,0.352
	c0.275,0.12,0.554,0.238,0.835,0.36c0.281,0.12,0.549,0.231,0.802,0.337c0.254,0.104,0.48,0.197,0.683,0.28
	c0.204,0.083,0.367,0.146,0.494,0.188c0.265,0.096,0.686,0.803,0.769,1.011c0.066,0.169,0.118,0.552,0.155,0.935H24v-1.069
	C23.956,15.134,23.882,14.914,23.781,14.706z"/>
<path d="M5.022,15.544c0.067-0.213,0.671-0.913,0.931-1.01c0.133-0.042,0.308-0.107,0.522-0.193s0.455-0.185,0.721-0.293
	c0.267-0.111,0.546-0.23,0.84-0.356c0.294-0.127,0.586-0.252,0.876-0.38c0.292-0.127,0.566-0.246,0.826-0.36
	c0.033-0.014,0.061-0.026,0.093-0.042c-0.118-0.05-0.237-0.101-0.354-0.152c-0.245-0.107-0.482-0.211-0.713-0.312
	s-0.436-0.191-0.616-0.27v-0.987c0-0.045,0.014-0.116,0.042-0.216c0.028-0.098,0.059-0.2,0.093-0.308
	c0.039-0.123,0.081-0.255,0.125-0.395c0.101-0.188,0.184-0.395,0.257-0.611c0.021,0.013,0.043,0.024,0.067,0.028
	c0.22,0.037,0.384-0.381,0.432-0.891c0.046-0.502,0.098-0.659-0.237-0.685c0-0.024,0.004-0.046,0.004-0.07
	c0-0.573-0.061-1.059-0.182-1.455C8.63,6.191,8.625,5.907,8.415,5.662C8.204,5.417,7.797,5.204,7.52,5.094
	C7.24,4.984,6.944,4.929,6.63,4.929c-0.321,0-0.624,0.142-0.902,0.254c-0.279,0.114-0.726,0.23-0.934,0.479
	C4.587,5.91,4.628,6.206,4.508,6.6C4.39,6.985,4.364,7.553,4.362,8.11c-0.004,0-0.009,0-0.014,0C3.996,8.133,4.05,8.287,4.097,8.797
	c0.047,0.51,0.213,0.928,0.432,0.89c0.022-0.004,0.042-0.015,0.062-0.026c0.077,0.229,0.162,0.447,0.267,0.642
	c0.045,0.129,0.085,0.251,0.119,0.362c0.028,0.096,0.055,0.19,0.08,0.283c0.024,0.094,0.044,0.162,0.054,0.207v0.962
	c-0.174,0.079-0.375,0.168-0.607,0.27c-0.231,0.101-0.475,0.207-0.735,0.32c-0.257,0.114-0.517,0.225-0.779,0.338
	c-0.262,0.113-0.51,0.219-0.747,0.317c-0.236,0.096-0.45,0.185-0.641,0.26c-0.19,0.077-0.346,0.135-0.464,0.173
	c-0.23,0.085-0.418,0.213-0.564,0.386c-0.146,0.17-0.263,0.345-0.346,0.526C0.127,14.914,0.051,15.134,0,15.364v1.069h4.896
	C4.917,16.102,4.953,15.765,5.022,15.544z"/>
</g>
</svg>
