<?xml version="1.0" encoding="utf-8"?>
<svg version="1.2" xmlns="http://www.w3.org/2000/svg" xmlns:xlink="http://www.w3.org/1999/xlink"
	 x="0px" y="0px" width="24px" height="24px" viewBox="0 0 24 24">
<g class="fm_fill">
<path d="M10.125,11.669c0.418,0.833,0.995,1.536,1.535,1.947c0.381,0.289,0.649-0.058,0.649-0.058
	s-0.233-2.099-0.115-3.364c0.156-1.735,1.217-1.725,2.003-2.716c0.688-0.863,0.473-2.773,0.473-2.773l-0.767-0.772l-2.064-1.239
	c0,0,0.06,3.126-1.298,2.777C9.181,5.119,8.827,5.355,8.946,3.757c0.119-1.589,3.616-2.976,3.055-3.16
	c-1.369-0.459-5.809,0.337-7.484,2.512c-2.36,3.07-2.3,2.597-2.3,2.597S1.859,8.125,2.097,9.307c0.237,1.18,0.458,0.444,2.36,4.252
	c0.947,1.889,5.786,3.008,5.786,3.008l0.059-1.001c0,0-4.153-0.706-3.012-4.133C7.351,11.254,9.419,10.254,10.125,11.669z"/>
<path d="M19.287,15.207c-0.741-0.188-3.148-0.924-3.148-0.924s-1.294,0.114-2.409,1.11
	c-1.173,1.047-1.113,2.775-0.368,3.332c0.739,0.556,1.48,0.556,1.85,1.297c0.37,0.739-1.481,2.407-1.666,3.148
	c-0.184,0.742,8.146-2.223,8.146-7.038C21.691,14.838,20.026,15.394,19.287,15.207z"/>
<path d="M12.001,23.999C5.384,23.999,0,18.616,0,12c0-6.617,5.383-12,12-12S24,5.383,24,12
		C24,18.616,18.618,23.999,12.001,23.999z M12.001,1.194C6.042,1.194,1.194,6.042,1.194,12c0,5.959,4.848,10.805,10.807,10.805
		c5.958,0,10.806-4.846,10.806-10.805C22.807,6.042,17.959,1.194,12.001,1.194z"/>
</g>
</svg>
