<?xml version="1.0" encoding="utf-8"?>
<svg version="1.2" xmlns="http://www.w3.org/2000/svg" xmlns:xlink="http://www.w3.org/1999/xlink"
	 x="0px" y="0px" width="24px" height="24px" viewBox="0 0 24 24">
<g class="fm_fill">
<path d="M24,17.311l-6.072-2.978c0,0-2.234,3.321-2.749,3.208c-0.287-0.064-0.326-0.072-0.574-0.172
	c-0.891-0.357-3.103-1.373-5.185-3.256l-0.017,0.02c-2.057-1.868-3.282-3.94-3.723-4.783C5.556,9.117,5.542,9.076,5.449,8.798
	C5.282,8.297,8.358,5.735,8.358,5.735L4.773,0C4.773,0,0.02,0.369,0,5.098c-0.026,6.453,5.611,11.756,5.611,11.756
	c3.066,2.812,7.636,6.391,13.806,5.73C24.12,22.08,24,17.311,24,17.311z"/>
</g>
</svg>
