<?xml version="1.0" encoding="utf-8"?>
<svg version="1.2" xmlns="http://www.w3.org/2000/svg" xmlns:xlink="http://www.w3.org/1999/xlink"
	 x="0px" y="0px" width="24px" height="24px" viewBox="0 0 24 24">
<g class="fm_fill">
<path d="M24,15.315l-2.554-4.942l-4.833,2.498l2.819,0.911c-0.886,3.39-3.963,5.903-7.627,5.903
		c-2.373,0-4.597-1.054-6.104-2.89L4.075,18.13c1.908,2.326,4.726,3.659,7.73,3.659c4.477,0,8.351-3.108,9.62-7.173L24,15.315z"/>
<path d="M4.567,10.347c0.884-3.389,3.962-5.902,7.626-5.902c2.372,0,4.597,1.053,6.104,2.89L19.924,6
		c-1.908-2.326-4.726-3.659-7.73-3.659c-4.476,0-8.267,3.171-9.537,7.234L0,8.815l2.554,4.942l4.832-2.498L4.567,10.347z"/>
</g>
</svg>
