<?xml version="1.0" encoding="utf-8"?>
<svg version="1.2" xmlns="http://www.w3.org/2000/svg" xmlns:xlink="http://www.w3.org/1999/xlink"
	 x="0px" y="0px" width="24px" height="24px" viewBox="0 0 24 24">
<g class="fm_fill">
<path fill-rule="evenodd" d="M22.957,2.087h-6.262C16.695,1.453,16.817,0,15.478,0H9.571
		C8.24,0,8.349,1.453,8.349,2.087h-6.26c-0.688,0-1.043,1.453-1.043,2.086H24C24,3.541,23.645,2.087,22.957,2.087z M3.132,5.217
		l-0.055,17.47C3.077,23.412,3.714,24,4.5,24h16.031c0.787,0,1.424-0.588,1.424-1.312l-0.042-17.47H3.132z M7.306,21.91H5.219V7.304
		h2.087V21.91z M11.479,21.91H9.392V7.304h2.086V21.91z M15.652,21.91h-2.087V7.304h2.087V21.91z M19.826,21.91H17.74V7.304h2.086
		V21.91z"/>
</g>
</svg>
